#define fingerprint_width 48
#define fingerprint_height 56
static char fingerprint_bits[] = {
 0x00, 0x00, 0x00, 0x00, 0x00, 0x00, 0x00, 0x00, 0x00, 0x00, 0x00, 0x00,
 0x00, 0x00, 0xc0, 0xff, 0x01, 0x00, 0x00, 0x00, 0x60, 0x00, 0x07, 0x00,
 0x00, 0x00, 0x18, 0xff, 0x04, 0x00, 0x00, 0x00, 0xe4, 0x81, 0x1f, 0x00,
 0x00, 0x00, 0xb6, 0x1f, 0x1c, 0x00, 0x00, 0x00, 0xfd, 0xf0, 0x38, 0x00,
 0x00, 0x80, 0x14, 0x80, 0x53, 0x00, 0x00, 0xc0, 0x12, 0x3f, 0x76, 0x00,
 0x00, 0x60, 0xcb, 0x60, 0xac, 0x00, 0x00, 0x20, 0x6d, 0x98, 0xb9, 0x01,
 0x00, 0xa0, 0x35, 0x34, 0x53, 0x01, 0x00, 0xb0, 0x12, 0x6b, 0xb6, 0x01,
 0x00, 0xd0, 0xb2, 0x51, 0xa4, 0x06, 0x00, 0x50, 0xaf, 0x90, 0x2c, 0x05,
 0x00, 0x58, 0xab, 0xa0, 0x28, 0x05, 0x00, 0x68, 0xeb, 0x20, 0x69, 0x05,
 0x00, 0xe8, 0x6a, 0x20, 0x4b, 0x0d, 0x00, 0xa8, 0x77, 0x4e, 0x52, 0x09,
 0x00, 0xd8, 0x35, 0x53, 0x4a, 0x0a, 0x00, 0xb4, 0xb5, 0x51, 0x4a, 0x1a,
 0x00, 0x64, 0xb5, 0x56, 0x56, 0x12, 0x00, 0x74, 0xbd, 0x56, 0x50, 0x14,
 0x00, 0xdc, 0xaf, 0x56, 0x96, 0x14, 0x00, 0xec, 0xaa, 0x5a, 0x9e, 0x1d,
 0x00, 0xa4, 0x9e, 0x4a, 0x1a, 0x11, 0x00, 0x74, 0x57, 0x6b, 0x2a, 0x11,
 0x00, 0x5c, 0x55, 0x2d, 0x52, 0x13, 0x00, 0x24, 0x4b, 0x24, 0x52, 0x24,
 0x00, 0xb8, 0x6b, 0x24, 0xb1, 0x24, 0x00, 0x98, 0x2b, 0x92, 0x24, 0x29,
 0x00, 0x44, 0x2d, 0x92, 0x26, 0x03, 0x00, 0x30, 0x36, 0x9a, 0x4e, 0x04,
 0x00, 0x0c, 0x1b, 0x8b, 0x4a, 0x28, 0x00, 0xc4, 0x06, 0x25, 0xca, 0x21,
 0x00, 0x64, 0xc3, 0x25, 0x1a, 0x27, 0x00, 0x18, 0x78, 0x12, 0x23, 0x2c,
 0x00, 0x08, 0x8f, 0xcb, 0xd9, 0x2f, 0x00, 0xf8, 0xe1, 0x60, 0x38, 0x26,
 0x00, 0x88, 0x3d, 0x18, 0xe6, 0x09, 0x00, 0x18, 0x07, 0x86, 0x01, 0x37,
 0x00, 0x68, 0xf9, 0x73, 0xfe, 0x11, 0x00, 0x90, 0x05, 0x9e, 0x03, 0x0b,
 0x00, 0x10, 0x8f, 0x79, 0xfc, 0x00, 0x00, 0x20, 0xf0, 0x0f, 0x03, 0x04,
 0x00, 0xe0, 0x07, 0x80, 0x7f, 0x00, 0x00, 0x00, 0xf8, 0x7f, 0x80, 0x04,
 0x00, 0x80, 0x07, 0x80, 0x3e, 0x02, 0x00, 0x00, 0x84, 0x7f, 0x00, 0x01,
 0x00, 0x00, 0x30, 0x00, 0x00, 0x03, 0x00, 0x00, 0x80, 0x85, 0x83, 0x00,
 0x00, 0x00, 0x00, 0x34, 0x34, 0x00, 0x00, 0x00, 0x00, 0x90, 0x03, 0x00,
 0x00, 0x00, 0x00, 0x00, 0x00, 0x00, 0x00, 0x00, 0x00, 0x00, 0x00, 0x00
 };
